<svg xmlns="http://www.w3.org/2000/svg" width="900" height="1200" viewBox="0 0 900 1200" role="img" aria-labelledby="title desc">
  <title id="title">Placeholder de sábanas</title>
  <desc id="desc">Ilustración temporal para reemplazar por una foto real de sábanas.</desc>
  <defs>
    <linearGradient id="bg" x1="0" y1="0" x2="1" y2="1">
      <stop offset="0" stop-color="#fff5f7"/>
      <stop offset="0.48" stop-color="#fce7f3"/>
      <stop offset="1" stop-color="#ede9fe"/>
    </linearGradient>
    <filter id="shadow" x="-20%" y="-20%" width="140%" height="140%">
      <feDropShadow dx="0" dy="24" stdDeviation="28" flood-color="#be185d" flood-opacity="0.16"/>
    </filter>
  </defs>
  <rect width="900" height="1200" rx="56" fill="url(#bg)"/>
  <circle cx="120" cy="135" r="86" fill="#fbcfe8" opacity="0.45"/>
  <circle cx="775" cy="250" r="108" fill="#c4b5fd" opacity="0.28"/>
  <g filter="url(#shadow)">
    <rect x="155" y="330" width="590" height="520" rx="68" fill="#fffaf9"/>
    <path d="M155 475c112-58 214-43 312 15 104 62 187 58 278-8v250c-92 66-176 70-278 8-98-58-200-73-312-15z" fill="#f9a8d4" opacity="0.62"/>
    <path d="M215 385h430c44 0 80 36 80 80v34H135v-34c0-44 36-80 80-80z" fill="#fff" opacity="0.82"/>
    <rect x="220" y="598" width="465" height="58" rx="29" fill="#fce7f3"/>
    <rect x="268" y="692" width="370" height="44" rx="22" fill="#fbcfe8"/>
  </g>
  <text x="450" y="945" text-anchor="middle" font-family="Poppins, Arial, sans-serif" font-size="46" font-weight="800" fill="#831843">Foto real aquí</text>
  <text x="450" y="1008" text-anchor="middle" font-family="Poppins, Arial, sans-serif" font-size="28" font-weight="600" fill="#be185d">Sábanas, colchas o blancos</text>
</svg>
