<svg xmlns="http://www.w3.org/2000/svg" width="900" height="900" viewBox="0 0 900 900" role="img" aria-labelledby="title desc">
  <title id="title">Placeholder de empaque</title>
  <desc id="desc">Ilustración temporal para reemplazar por una foto real de un paquete con moño.</desc>
  <defs>
    <linearGradient id="bg" x1="0" y1="0" x2="1" y2="1">
      <stop offset="0" stop-color="#fff5f7"/>
      <stop offset="0.56" stop-color="#fce7f3"/>
      <stop offset="1" stop-color="#faf5ff"/>
    </linearGradient>
    <filter id="shadow" x="-20%" y="-20%" width="140%" height="140%">
      <feDropShadow dx="0" dy="24" stdDeviation="28" flood-color="#ec4899" flood-opacity="0.16"/>
    </filter>
  </defs>
  <rect width="900" height="900" rx="56" fill="url(#bg)"/>
  <g filter="url(#shadow)">
    <rect x="250" y="310" width="400" height="340" rx="42" fill="#fffaf9"/>
    <rect x="420" y="310" width="60" height="340" fill="#ec4899" opacity="0.78"/>
    <rect x="250" y="455" width="400" height="56" fill="#ec4899" opacity="0.78"/>
    <path d="M450 328c-64-92-166-70-162 10 4 78 110 56 162-10z" fill="#f472b6"/>
    <path d="M450 328c64-92 166-70 162 10-4 78-110 56-162-10z" fill="#be185d"/>
    <circle cx="450" cy="326" r="34" fill="#831843"/>
  </g>
  <text x="450" y="735" text-anchor="middle" font-family="Poppins, Arial, sans-serif" font-size="42" font-weight="800" fill="#831843">Foto real aquí</text>
  <text x="450" y="790" text-anchor="middle" font-family="Poppins, Arial, sans-serif" font-size="26" font-weight="600" fill="#be185d">Pedido con moñito</text>
</svg>
