<svg xmlns="http://www.w3.org/2000/svg" width="1400" height="900" viewBox="0 0 1400 900" role="img" aria-labelledby="title desc">
  <title id="title">Placeholder de edredones</title>
  <desc id="desc">Ilustración temporal para reemplazar por una foto real de edredones.</desc>
  <defs>
    <linearGradient id="bg" x1="0" y1="0" x2="1" y2="1">
      <stop offset="0" stop-color="#fdf2f8"/>
      <stop offset="0.5" stop-color="#fff5f7"/>
      <stop offset="1" stop-color="#ddd6fe"/>
    </linearGradient>
    <filter id="shadow" x="-20%" y="-20%" width="140%" height="140%">
      <feDropShadow dx="0" dy="28" stdDeviation="32" flood-color="#be185d" flood-opacity="0.15"/>
    </filter>
  </defs>
  <rect width="1400" height="900" rx="56" fill="url(#bg)"/>
  <g filter="url(#shadow)">
    <rect x="190" y="250" width="1020" height="420" rx="70" fill="#fffaf9"/>
    <path d="M270 378c160-100 310-82 470 8 150 84 298 86 470-14v222c-172 100-320 98-470 14-160-90-310-108-470-8z" fill="#f9a8d4" opacity="0.62"/>
    <path d="M320 312h760c56 0 102 46 102 102v46H218v-46c0-56 46-102 102-102z" fill="#fff" opacity="0.9"/>
    <path d="M392 522h616" stroke="#fbcfe8" stroke-width="34" stroke-linecap="round"/>
    <path d="M470 596h460" stroke="#ede9fe" stroke-width="28" stroke-linecap="round"/>
  </g>
  <text x="700" y="760" text-anchor="middle" font-family="Poppins, Arial, sans-serif" font-size="48" font-weight="800" fill="#831843">Foto real aquí</text>
  <text x="700" y="822" text-anchor="middle" font-family="Poppins, Arial, sans-serif" font-size="28" font-weight="600" fill="#be185d">Edredones, colchas y detalles para recámara</text>
</svg>
