<svg xmlns="http://www.w3.org/2000/svg" width="900" height="900" viewBox="0 0 900 900" role="img" aria-labelledby="title desc">
  <title id="title">Placeholder de cocina</title>
  <desc id="desc">Ilustración temporal para reemplazar por una foto real de utensilios de cocina.</desc>
  <defs>
    <linearGradient id="bg" x1="0" y1="0" x2="1" y2="1">
      <stop offset="0" stop-color="#fffaf9"/>
      <stop offset="0.5" stop-color="#fdf2f8"/>
      <stop offset="1" stop-color="#e9d5ff"/>
    </linearGradient>
    <filter id="shadow" x="-20%" y="-20%" width="140%" height="140%">
      <feDropShadow dx="0" dy="22" stdDeviation="24" flood-color="#7c3aed" flood-opacity="0.14"/>
    </filter>
  </defs>
  <rect width="900" height="900" rx="56" fill="url(#bg)"/>
  <g filter="url(#shadow)">
    <rect x="220" y="230" width="460" height="330" rx="44" fill="#fff" opacity="0.92"/>
    <path d="M320 560h260l-38 78H358z" fill="#f472b6"/>
    <rect x="280" y="300" width="340" height="44" rx="22" fill="#fbcfe8"/>
    <path d="M346 292v-82c0-32 26-58 58-58h94c32 0 58 26 58 58v82" fill="none" stroke="#be185d" stroke-width="22" stroke-linecap="round"/>
    <circle cx="372" cy="438" r="50" fill="#fce7f3"/>
    <circle cx="528" cy="438" r="50" fill="#ede9fe"/>
  </g>
  <path d="M165 170c22 40 64 44 102 16-36 36-30 78 12 105-48-20-87-2-110 43 12-48-8-82-54-101 48 4 78-18 50-63z" fill="#ec4899" opacity="0.55"/>
  <text x="450" y="710" text-anchor="middle" font-family="Poppins, Arial, sans-serif" font-size="42" font-weight="800" fill="#831843">Foto real aquí</text>
  <text x="450" y="766" text-anchor="middle" font-family="Poppins, Arial, sans-serif" font-size="26" font-weight="600" fill="#be185d">Utensilios de cocina</text>
</svg>
